<?xml version="1.0" encoding="utf-8"?>
<!-- Generator: Adobe Illustrator 23.0.1, SVG Export Plug-In . SVG Version: 6.00 Build 0)  -->
<svg version="1.1" id="Layer_1" xmlns="http://www.w3.org/2000/svg" xmlns:xlink="http://www.w3.org/1999/xlink" x="0px" y="0px"
	 viewBox="0 0 3000 3000" style="enable-background:new 0 0 3000 3000;" xml:space="preserve">
<style type="text/css">
	.st0{fill:#0066FF;}
	.st1{fill:#5CA6FF;}
	.st2{fill:url(#SVGID_1_);}
	.st3{fill:url(#SVGID_2_);}
	.st4{fill:url(#SVGID_3_);}
	.st5{fill:url(#SVGID_4_);}
	.st6{fill:url(#SVGID_5_);}
	.st7{fill:url(#SVGID_6_);}
	.st8{fill:url(#SVGID_7_);}
	.st9{fill:url(#SVGID_8_);}
	.st10{fill:url(#SVGID_9_);}
	.st11{fill:url(#SVGID_10_);}
	.st12{fill:url(#SVGID_11_);}
</style>
<g>
	<rect x="749" y="-1315" class="st0" width="656" height="656"/>
	<rect x="1595" y="-1315" class="st1" width="656" height="656"/>
</g>
<g>
	<linearGradient id="SVGID_1_" gradientUnits="userSpaceOnUse" x1="1505.5251" y1="140.8212" x2="1497.2177" y2="2184.459">
		<stop  offset="0" style="stop-color:#5CA6FF"/>
		<stop  offset="1" style="stop-color:#0066FF"/>
	</linearGradient>
	<circle class="st2" cx="1500" cy="1500" r="1442.5"/>
	<g>
		<linearGradient id="SVGID_2_" gradientUnits="userSpaceOnUse" x1="1738.2794" y1="3815.2051" x2="652.7699" y2="-692.9824">
			<stop  offset="0" style="stop-color:#000000"/>
			<stop  offset="1" style="stop-color:#0066FF"/>
		</linearGradient>
		<path class="st3" d="M1175.6,1371.4l358.3,358.3c72,72,72,188.7,0,260.8l0,0c-72,72-188.7,72-260.8,0l-358.3-358.3
			c-72-72-72-188.7,0-260.8l0,0C986.9,1299.4,1103.6,1299.4,1175.6,1371.4z"/>
		<g>
			<linearGradient id="SVGID_3_" gradientUnits="userSpaceOnUse" x1="284.8083" y1="-599.3954" x2="4397.0063" y2="4692.4634">
				<stop  offset="0" style="stop-color:#FFFFFF"/>
				<stop  offset="0.3272" style="stop-color:#FFFFFF"/>
				<stop  offset="1" style="stop-color:#0066FF"/>
			</linearGradient>
			<path class="st4" d="M1824.4,1628.6l-358.3-358.3c-72-72-72-188.7,0-260.8l0,0c72-72,188.7-72,260.8,0l358.3,358.3
				c72,72,72,188.7,0,260.8l0,0C2013.1,1700.6,1896.4,1700.6,1824.4,1628.6z"/>
			<linearGradient id="SVGID_4_" gradientUnits="userSpaceOnUse" x1="-145.1628" y1="-265.2735" x2="3967.0352" y2="5026.5854">
				<stop  offset="0" style="stop-color:#FFFFFF"/>
				<stop  offset="0.3272" style="stop-color:#FFFFFF"/>
				<stop  offset="1" style="stop-color:#0066FF"/>
			</linearGradient>
			<path class="st5" d="M2085.1,1631.3L1266.5,2450c-72,72-188.7,72-260.8,0l0,0c-72-72-72-188.7,0-260.8l818.7-818.7
				c72-72,188.7-72,260.8,0l0,0C2157.1,1442.6,2157.1,1559.3,2085.1,1631.3z"/>
		</g>
		<linearGradient id="SVGID_5_" gradientUnits="userSpaceOnUse" x1="2090.4258" y1="3730.4131" x2="1004.9162" y2="-777.7744">
			<stop  offset="0" style="stop-color:#000000"/>
			<stop  offset="1" style="stop-color:#0066FF"/>
		</linearGradient>
		<path class="st6" d="M914.9,1368.7L1733.5,550c72-72,188.7-72,260.8,0l0,0c72,72,72,188.7,0,260.8l-818.7,818.7
			c-72,72-188.7,72-260.8,0l0,0C842.9,1557.4,842.9,1440.7,914.9,1368.7z"/>
	</g>
</g>
<g>
	<g>
		<linearGradient id="SVGID_6_" gradientUnits="userSpaceOnUse" x1="41.1063" y1="3855.6543" x2="39.0719" y2="4356.1152">
			<stop  offset="0" style="stop-color:#5CA6FF"/>
			<stop  offset="1" style="stop-color:#0066FF"/>
		</linearGradient>
		<circle class="st7" cx="39.8" cy="4188.5" r="353.3"/>
		<g>
			<linearGradient id="SVGID_7_" gradientUnits="userSpaceOnUse" x1="98.1049" y1="4755.4644" x2="-167.7227" y2="3651.4663">
				<stop  offset="0" style="stop-color:#000000"/>
				<stop  offset="1" style="stop-color:#0066FF"/>
			</linearGradient>
			<path class="st8" d="M-39.7,4157l87.7,87.7c17.6,17.6,17.6,46.2,0,63.9h0c-17.6,17.6-46.2,17.6-63.9,0l-87.7-87.7
				c-17.6-17.6-17.6-46.2,0-63.9h0C-85.9,4139.4-57.3,4139.4-39.7,4157z"/>
			<g>
				<linearGradient id="SVGID_8_" gradientUnits="userSpaceOnUse" x1="-257.8318" y1="3674.3845" x2="749.1934" y2="4970.2939">
					<stop  offset="0" style="stop-color:#FFFFFF"/>
					<stop  offset="0.3272" style="stop-color:#FFFFFF"/>
					<stop  offset="1" style="stop-color:#0066FF"/>
				</linearGradient>
				<path class="st9" d="M119.2,4220l-87.7-87.7c-17.6-17.6-17.6-46.2,0-63.9h0c17.6-17.6,46.2-17.6,63.9,0l87.7,87.7
					c17.6,17.6,17.6,46.2,0,63.9h0C165.4,4237.6,136.8,4237.6,119.2,4220z"/>
				<linearGradient id="SVGID_9_" gradientUnits="userSpaceOnUse" x1="-363.1263" y1="3756.2068" x2="643.899" y2="5052.1162">
					<stop  offset="0" style="stop-color:#FFFFFF"/>
					<stop  offset="0.3272" style="stop-color:#FFFFFF"/>
					<stop  offset="1" style="stop-color:#0066FF"/>
				</linearGradient>
				<path class="st10" d="M183,4220.7l-200.5,200.5c-17.6,17.6-46.2,17.6-63.9,0h0c-17.6-17.6-17.6-46.2,0-63.9l200.5-200.5
					c17.6-17.6,46.2-17.6,63.9,0h0C200.7,4174.4,200.7,4203,183,4220.7z"/>
			</g>
			<linearGradient id="SVGID_10_" gradientUnits="userSpaceOnUse" x1="184.341" y1="4734.6997" x2="-81.4865" y2="3630.7019">
				<stop  offset="0" style="stop-color:#000000"/>
				<stop  offset="1" style="stop-color:#0066FF"/>
			</linearGradient>
			<path class="st11" d="M-103.5,4156.3l200.5-200.5c17.6-17.6,46.2-17.6,63.9,0h0c17.6,17.6,17.6,46.2,0,63.9l-200.5,200.5
				c-17.6,17.6-46.2,17.6-63.9,0h0C-121.2,4202.6-121.2,4174-103.5,4156.3z"/>
		</g>
	</g>
	<g>
		<linearGradient id="SVGID_11_" gradientUnits="userSpaceOnUse" x1="1907.8545" y1="3811.4302" x2="1901.0929" y2="5069.0747">
			<stop  offset="0" style="stop-color:#000000"/>
			<stop  offset="1" style="stop-color:#0066FF"/>
		</linearGradient>
		<path class="st12" d="M657.8,4403.7c-30,0-56.6-5.2-79.3-15.4c-23.3-10.5-42.1-25.5-55.6-44.5c-13.7-19.2-21.5-41.5-23.2-66.4
			l-1.6-23.5H579l1.7,20.2c0.9,11.1,4.3,20,10.4,27.4c6.7,8,15.3,14,26.3,18.2c11.8,4.6,25.4,6.9,40.4,6.9c16.6,0,31.4-2.7,44-8.2
			c11.9-5.1,20.8-11.9,27.4-20.7c6-8.1,8.9-17.5,8.9-28.6c0-8.5-1.9-15.2-5.9-20.4c-4.9-6.4-12.1-11.9-21.4-16.6
			c-11.2-5.6-24.5-10.6-39.6-15l-47.4-13.9c-34.4-10.3-61.7-25-81.3-43.7c-21.6-20.6-32.5-47-32.5-78.6c0-25.8,7.1-49,21.1-68.9
			c13.6-19.3,32.1-34.5,55.1-45.2c22.4-10.4,47.6-15.7,75.1-15.7c27.8,0,53,5.3,74.8,15.7c22.3,10.6,40.4,25.6,53.7,44.4
			c13.6,19.3,21,41.4,21.9,65.7l0.9,22.8h-77.8l-2-19.8c-1.6-16-8.1-27.8-20.6-37.2c-13.5-10.2-30.5-15.1-51.9-15.1
			c-15.2,0-28.5,2.5-39.6,7.5c-10.5,4.7-18.3,10.9-24,18.9c-5.3,7.4-7.8,15.7-7.8,25.3c0,6.6,1.3,12,3.8,16.5c3,5.2,7,9.6,12.2,13.4
			c6.3,4.6,13.4,8.6,21.2,11.9c8.5,3.6,17.1,6.7,25.7,9.1l41.7,12c13.5,3.7,27.2,8.5,40.6,14.3c14.3,6.1,27.6,14,39.6,23.3
			c12.9,10,23.4,22.4,31.2,36.9c8.1,15,12.2,32.8,12.2,52.9c0,25.4-6.7,48.6-20,69c-13.1,20.2-32,36.4-56.1,48
			C717.6,4398,689.6,4403.7,657.8,4403.7z M2949.7,4403.2c-29.9,0-56.9-7.8-80.1-23.2c-22.9-15.2-41-36.3-53.8-62.9
			c-12.5-25.9-18.8-56-18.8-89.3c0-33.6,6.3-63.8,18.8-89.9c12.8-26.7,30.9-47.9,53.9-63c23.2-15.3,50.2-23.1,80.1-23.1
			c29.9,0,56.9,7.8,80.1,23.2c22.8,15.2,40.9,36.3,53.8,62.9c12.6,26,18.9,56.2,18.9,89.8c0,33.4-6.3,63.4-18.8,89.3
			c-12.8,26.5-30.9,47.7-53.8,62.9C3006.6,4395.4,2979.7,4403.2,2949.7,4403.2z M2949.7,4127.2c-15.6,0-28.3,4-38.8,12.2
			c-11.4,8.9-19.8,20.5-25.8,35.5c-6.3,15.9-9.6,33.7-9.6,53c0,19.3,3.2,37,9.5,52.7c6,14.9,14.4,26.4,25.7,35.1
			c10.4,8.1,23.2,12,38.9,12s28.5-3.9,38.9-12c11.3-8.7,19.7-20.2,25.7-35.1c6.3-15.7,9.5-33.5,9.5-52.7c0-19.3-3.2-37.1-9.6-53
			c-6-15-14.4-26.7-25.7-35.5C2978.2,4131.1,2965.5,4127.2,2949.7,4127.2z M2288.8,4403.2c-28.9,0-54.7-7.9-76.7-23.4
			c-21.5-15.2-38.4-36.4-50.3-63c-11.5-25.8-17.3-55.9-17.3-89.6c0-33.5,5.8-63.6,17.3-89.3c11.9-26.6,28.9-47.8,50.6-62.9
			c22.1-15.4,48-23.2,77-23.2c21.6,0,40.3,4.1,55.4,12.2c5.9,3.1,11.4,6.6,16.4,10.4v-117.6h78.6V4397h-77.7v-17.6
			c-5.4,4.2-11.4,8.1-17.8,11.5C2329.2,4399,2310.5,4403.2,2288.8,4403.2z M2292.9,4127.2c-14.9,0-26.8,3.7-36.5,11.4
			c-10.5,8.3-18.4,19.6-24.1,34.2c-6,15.7-9.1,33.8-9.1,53.8c0,20.3,3.1,38.7,9.2,54.6c5.7,15,13.7,26.4,24.2,34.9
			c9.7,7.8,21.5,11.5,36.2,11.5c14.3,0,26-3.6,35.6-11.1c10.4-8.1,18.3-19.2,24-34.1c6.1-15.9,9.3-34.6,9.3-55.8
			c0-20.9-3.1-39.4-9.1-55c-5.7-14.5-13.5-25.5-23.8-33.4C2319.2,4130.8,2307.4,4127.2,2292.9,4127.2z M2738.1,4401.4
			c-15.9,0-31.3-3.5-45.9-10.4c-15.2-7.2-27.8-18.1-37.5-32.2c-10-14.6-15-32.5-15-53.2v-175.7h-44.3v-74h44.3v-71.2h78.6v71.2h62.9
			v74h-62.9v167.5c0,10.8,2,15.7,3.2,17.7c2.4,4,4.8,5.4,6.4,6c4.1,1.8,8.5,2.6,13.3,2.6c4,0,6.4-0.3,7.7-0.5c2.7-0.5,4.9-1,6.8-1.5
			l21.8-5.8l17,71.8l-17.9,6.9c-4.4,1.7-9.5,3.2-15.5,4.5C2754.6,4400.7,2747.1,4401.4,2738.1,4401.4z M1606.3,4401.4
			c-15.9,0-31.3-3.5-45.9-10.4c-15.2-7.2-27.8-18.1-37.5-32.2c-10-14.6-15-32.5-15-53.2v-175.7h-44.3v-74h44.3v-71.2h78.6v71.2h62.9
			v74h-62.9v167.5c0,10.8,2,15.7,3.2,17.7c2.4,4,4.8,5.4,6.4,6c4.1,1.8,8.5,2.6,13.3,2.6c4,0,6.4-0.3,7.7-0.5c2.7-0.5,4.9-1,6.8-1.5
			l21.8-5.8l17,71.8l-17.9,6.9c-4.4,1.7-9.5,3.2-15.4,4.5C1622.7,4400.7,1615.2,4401.4,1606.3,4401.4z M3134.1,4397v-341.1h77.5
			v12.7c18.2-11.4,39-17.1,61.7-17.1c3.1,0,6.4,0.1,10.3,0.2c3.5,0.1,6.6,0.3,9.1,0.4l20.8,1.1v81.8l-25.6-4.3
			c-0.9-0.2-2.9-0.5-7.4-1.1c-2.9-0.4-6.2-0.6-9.7-0.6c-11.9,0-22,2.3-30.8,7.1c-8.6,4.7-15.2,10.9-20.2,19
			c-4.9,8-7.3,17.2-7.3,27.9V4397H3134.1z M2494.3,4397v-341.1h78.6V4397H2494.3z M1843.9,4397v-440.1h273.8v76.5H1924v105.1h181.4
			v76.5H1924v105.5h197.5v76.5H1843.9z M1319.1,4397v-267.1h-45.6v-74h45.6v-21.5c0-20.4,5-38.1,14.9-52.8
			c9.6-14.2,22.4-25.2,37.9-32.5c14.9-7.1,30.9-10.6,47.5-10.6c10.9,0,20,0.9,27.8,2.9c7.1,1.8,12.7,3.5,17.2,5.3l19.1,7.8l-23.3,70
			l-20.4-6.1c-2.4-0.7-5.4-1.6-9-2.6c-0.8-0.2-3.3-0.8-8.3-0.8c-13.1,0-17.4,4.4-18.8,5.9c-4,4.1-6,11-6,20.7l0,14.4h65.8v74h-65.8
			l-0.2,267.1H1319.1z M1171.4,4397v-341.1h78.6V4397H1171.4z M1045.4,4397v-212.3c0-18.8-4.7-32.7-14.2-42.7
			c-9.4-9.7-22.2-14.4-39.2-14.4c-12.3,0-22.7,2.4-31.9,7.4c-8.8,4.8-15.5,11.4-20.7,20.5c-5.2,9.2-7.9,20.6-7.9,33.9V4397h-78.4
			v-440.1h78.4v113.4c0.6-0.4,1.2-0.8,1.8-1.2c18.1-11.3,40.8-17.1,67.3-17.1c23.7,0,45.1,5.1,63.5,15c19,10.3,34,25.7,44.6,45.6
			c10.2,19.2,15.3,42.7,15.3,69.8V4397H1045.4z M2533.9,4048.8c-12.8,0-24.3-4.6-33.4-13.4c-9.4-9-14.3-20.5-14.3-33.4
			c0-12.8,4.9-24.4,14.3-33.4c9.1-8.8,20.7-13.4,33.4-13.4s24.3,4.6,33.4,13.4c9.4,9,14.3,20.5,14.3,33.4c0,12.8-4.9,24.4-14.3,33.4
			C2558.2,4044.2,2546.7,4048.8,2533.9,4048.8z M1211,4048.8c-12.8,0-24.3-4.6-33.4-13.4c-9.4-9-14.3-20.5-14.3-33.4
			c0-12.8,4.9-24.4,14.3-33.4c9.1-8.8,20.7-13.4,33.4-13.4s24.3,4.6,33.4,13.4c9.4,9,14.3,20.5,14.3,33.4c0,12.8-4.9,24.4-14.3,33.4
			C1235.3,4044.2,1223.7,4048.8,1211,4048.8z"/>
	</g>
</g>
</svg>
